<svg width="38" height="38" viewBox="0 0 38 38" fill="none" xmlns="http://www.w3.org/2000/svg">
<g id="Calque_1" clip-path="url(#clip0_203_1636)">
<g id="Group">
<path id="Vector" d="M15.0911 19.006C12.6876 19.006 10.7275 17.0475 10.7275 14.6411C10.7275 12.2348 12.6876 10.2762 15.0911 10.2762C17.4945 10.2762 19.4546 12.2348 19.4546 14.6411C19.4546 17.0475 17.4945 19.006 15.0911 19.006ZM15.0911 10.736C12.9385 10.736 11.1826 12.4915 11.1826 14.6471C11.1826 16.8026 12.9385 18.5581 15.0911 18.5581C17.2437 18.5581 18.9996 16.8026 18.9996 14.6471C18.9996 12.4915 17.2437 10.736 15.0911 10.736Z" fill="white"/>
<path id="Vector_2" d="M15.0911 19.2269C12.5651 19.2269 10.5117 17.1729 10.5117 14.6471C10.5117 12.1213 12.5651 10.0673 15.0911 10.0673C17.617 10.0673 19.6705 12.1213 19.6705 14.6471C19.6705 17.1729 17.617 19.2269 15.0911 19.2269ZM15.0911 10.5031C12.8043 10.5031 10.9492 12.3602 10.9492 14.6471C10.9492 16.934 12.8102 18.791 15.0911 18.791C17.372 18.791 19.2329 16.934 19.2329 14.6471C19.2329 12.3602 17.372 10.5031 15.0911 10.5031ZM15.0911 18.7731C12.816 18.7731 10.9609 16.9221 10.9609 14.6471C10.9609 12.3721 12.8102 10.5211 15.0911 10.5211C17.372 10.5211 19.2213 12.3721 19.2213 14.6471C19.2213 16.9221 17.372 18.7731 15.0911 18.7731ZM15.0911 10.957C13.0552 10.957 11.3984 12.6109 11.3984 14.6471C11.3984 16.6832 13.0552 18.3372 15.0911 18.3372C17.127 18.3372 18.7837 16.6832 18.7837 14.6471C18.7837 12.6109 17.127 10.957 15.0911 10.957Z" fill="white"/>
</g>
<g id="Group_2">
<path id="Vector_3" d="M19.7411 25.6577H10.4366C9.6957 25.6577 9.01317 25.2935 8.59899 24.6785C8.19064 24.0635 8.10897 23.2932 8.39481 22.6125C8.80316 21.6213 9.47986 20.7615 10.3899 20.0569C12.6417 18.3312 15.7218 18.0685 18.4286 19.3642C19.9162 20.0748 21.0187 21.1197 21.7187 22.4632C22.0687 23.1379 22.0396 23.9321 21.6429 24.5889C21.2345 25.2577 20.5287 25.6577 19.747 25.6577H19.7411ZM14.8993 19C13.3709 19 11.8891 19.4777 10.6641 20.4151C9.81237 21.066 9.18818 21.8661 8.809 22.7797C8.58149 23.329 8.63982 23.9261 8.97234 24.4217C9.29902 24.9114 9.84738 25.2039 10.4307 25.2039H19.7353C20.3537 25.2039 20.9195 24.8875 21.2462 24.3561C21.5612 23.8366 21.5846 23.2096 21.3104 22.6722C20.6629 21.4183 19.6245 20.445 18.2302 19.7703C17.151 19.2508 16.0135 19 14.8934 19H14.8993Z" fill="white"/>
<path id="Vector_4" d="M19.7412 25.8787H10.4366C9.62574 25.8787 8.86737 25.4727 8.41818 24.7979C7.969 24.1232 7.88149 23.2753 8.19067 22.5229C8.61653 21.4959 9.31072 20.6062 10.2558 19.8777C12.5717 18.0984 15.7393 17.8297 18.522 19.1612C20.0504 19.8957 21.1937 20.9705 21.9113 22.3557C22.2963 23.1021 22.2613 23.9739 21.8238 24.6964C21.3746 25.4309 20.5987 25.8727 19.7412 25.8727V25.8787ZM14.8993 18.7671C13.3184 18.7671 11.7842 19.2627 10.5241 20.23C9.6374 20.9107 8.98987 21.7348 8.59319 22.6961C8.33651 23.3111 8.40652 24.0038 8.77987 24.5591C9.15322 25.1144 9.77158 25.4428 10.4366 25.4428H19.7412C20.447 25.4428 21.0829 25.0845 21.4504 24.4815C21.8063 23.8903 21.8354 23.1798 21.5204 22.5707C20.8496 21.269 19.7762 20.2599 18.3353 19.5672C17.2269 19.0358 16.0485 18.7731 14.8993 18.7731V18.7671ZM19.7412 25.4249H10.4366C9.77741 25.4249 9.16488 25.0965 8.79737 24.5471C8.42402 23.9918 8.35985 23.3171 8.61653 22.7021C9.01321 21.7467 9.6549 20.9227 10.5416 20.248C11.7842 19.2926 13.2951 18.791 14.9051 18.791C16.066 18.791 17.2502 19.0657 18.3353 19.5852C19.7762 20.2778 20.8437 21.2809 21.5146 22.5826C21.8238 23.1857 21.8004 23.8903 21.4446 24.4755C21.0829 25.0726 20.447 25.4309 19.747 25.4309L19.7412 25.4249ZM14.8993 19.2209C13.3826 19.2209 11.965 19.6926 10.7983 20.5883C9.97575 21.2153 9.38073 21.9855 9.01321 22.8633C8.81487 23.341 8.86737 23.8664 9.15905 24.3023C9.4449 24.7322 9.92325 24.983 10.4366 24.983H19.7412C20.2837 24.983 20.7796 24.7024 21.0654 24.2366C21.3396 23.7828 21.3629 23.2335 21.1237 22.7677C20.4995 21.5556 19.4962 20.6122 18.1428 19.9673C17.1219 19.4777 15.996 19.215 14.9051 19.215L14.8993 19.2209Z" fill="white"/>
</g>
<g id="Group_3">
<path id="Vector_5" d="M24.9558 19.6449C23.1008 19.6449 21.5957 18.1402 21.5957 16.2832C21.5957 14.4262 23.1008 12.9214 24.9558 12.9214C26.8109 12.9214 28.316 14.4262 28.316 16.2832C28.316 18.1402 26.8109 19.6449 24.9558 19.6449ZM24.9558 13.3753C23.3516 13.3753 22.0507 14.6769 22.0507 16.2832C22.0507 17.8894 23.3516 19.1911 24.9558 19.1911C26.5601 19.1911 27.861 17.8894 27.861 16.2832C27.861 14.6769 26.5601 13.3753 24.9558 13.3753Z" fill="white"/>
<path id="Vector_6" d="M24.9558 19.8658C22.9841 19.8658 21.374 18.2596 21.374 16.2891C21.374 14.3187 22.9783 12.7125 24.9558 12.7125C26.9334 12.7125 28.5377 14.3187 28.5377 16.2891C28.5377 18.2596 26.9334 19.8658 24.9558 19.8658ZM24.9558 13.1424C23.2233 13.1424 21.8115 14.5516 21.8115 16.2832C21.8115 18.0148 23.2233 19.424 24.9558 19.424C26.6884 19.424 28.1002 18.0148 28.1002 16.2832C28.1002 14.5516 26.6884 13.1424 24.9558 13.1424ZM24.9558 19.412C23.2349 19.412 21.829 18.0088 21.829 16.2891C21.829 14.5695 23.2291 13.1663 24.9558 13.1663C26.6826 13.1663 28.0827 14.5695 28.0827 16.2891C28.0827 18.0088 26.6826 19.412 24.9558 19.412ZM24.9558 13.6022C23.4741 13.6022 22.2666 14.8083 22.2666 16.2891C22.2666 17.77 23.4741 18.9761 24.9558 18.9761C26.4376 18.9761 27.6451 17.77 27.6451 16.2891C27.6451 14.8083 26.4376 13.6022 24.9558 13.6022Z" fill="white"/>
</g>
<g id="Group_4">
<path id="Vector_7" d="M28.4802 24.6844H21.4274V24.2306H28.4802C28.9294 24.2306 29.3436 23.9977 29.5769 23.6156C29.8044 23.2394 29.8219 22.7856 29.6236 22.3975C29.1394 21.46 28.3635 20.7256 27.3135 20.224C25.4001 19.3045 23.2242 19.4896 21.6374 20.7017C21.4449 20.851 21.1649 21.1077 21.0716 21.1973C21.0016 21.263 20.9141 21.3406 20.7857 21.2928L20.6399 21.1137C20.6282 21.0361 20.6107 20.9107 21.3574 20.3434C23.0783 19.0238 25.4351 18.8208 27.506 19.812C28.6436 20.3554 29.4894 21.1555 30.0203 22.1825C30.2945 22.714 30.2711 23.335 29.9561 23.8485C29.6353 24.3739 29.0811 24.6844 28.4744 24.6844H28.4802Z" fill="white"/>
<path id="Vector_8" d="M28.48 24.8994H21.2113V24.0097H28.48C28.8533 24.0097 29.1917 23.8186 29.39 23.4962C29.5767 23.1857 29.5942 22.8095 29.4309 22.4931C28.97 21.5974 28.2233 20.8988 27.2199 20.4151C25.3765 19.5314 23.2939 19.7046 21.7714 20.8749C21.6489 20.9704 21.4972 21.1018 21.3805 21.2093L21.2172 21.3645C21.1413 21.4302 20.9605 21.5855 20.7155 21.4959L20.6571 21.478L20.4355 21.2093L20.4238 21.1496C20.3888 20.9227 20.4938 20.7256 21.223 20.1703C23.0081 18.797 25.4524 18.588 27.5991 19.615C28.7775 20.1822 29.6584 21.0122 30.2126 22.087C30.5217 22.6841 30.4984 23.3887 30.1426 23.9679C29.7867 24.5591 29.1567 24.9113 28.4742 24.9113L28.48 24.8994ZM21.6489 24.4635H28.48C29.0167 24.4635 29.5009 24.1888 29.775 23.735C30.0492 23.2872 30.0667 22.7438 29.8276 22.2841C29.32 21.2988 28.5033 20.5345 27.4124 20.0091C25.4174 19.0537 23.1481 19.2448 21.4914 20.5166C21.0713 20.8391 20.9255 20.9943 20.8788 21.06L20.8905 21.0719L20.9197 21.0421C21.0188 20.9465 21.3047 20.6838 21.503 20.5286C23.1539 19.2627 25.4174 19.0716 27.4066 20.027C28.4975 20.5525 29.3084 21.3108 29.8159 22.296C30.0492 22.7498 30.0317 23.2872 29.7634 23.7291C29.4892 24.1829 29.0108 24.4516 28.48 24.4516L21.6489 24.4695V24.4635Z" fill="white"/>
</g>
<path id="Vector_9" d="M19.0004 34.1486C10.6526 34.1486 3.85645 27.3535 3.85645 19.006C3.85645 10.6584 10.6526 3.86328 19.0004 3.86328C27.3483 3.86328 34.1444 10.6584 34.1444 19.006C34.1444 27.3535 27.3541 34.1486 19.0004 34.1486ZM19.0004 4.74103C11.1309 4.74103 4.73148 11.142 4.73148 19.006C4.73148 26.8699 11.1309 33.2709 19.0004 33.2709C26.87 33.2709 33.2694 26.8699 33.2694 19.006C33.2694 11.142 26.87 4.74103 19.0004 4.74103Z" fill="white"/>
<path id="Vector_10" d="M19 38C8.52287 38 0 29.4793 0 19C0 8.52074 8.52287 0 19 0C29.4771 0 38 8.52074 38 19C38 29.4793 29.4771 38 19 38ZM19 0.871779C9.00706 0.87775 0.875038 9.0044 0.875038 19C0.875038 28.9956 9.00706 37.1282 19 37.1282C28.9929 37.1282 37.125 28.9956 37.125 19C37.125 9.0044 28.9929 0.87775 19 0.87775V0.871779Z" fill="white"/>
</g>
<defs>
<clipPath id="clip0_203_1636">
<rect width="38" height="38" fill="white"/>
</clipPath>
</defs>
</svg>
