<svg width="31" height="37" viewBox="0 0 31 37" fill="none" xmlns="http://www.w3.org/2000/svg">
<g id="Calque_1" clip-path="url(#clip0_174_1380)">
<path id="Vector" d="M15.9201 36.9999C15.505 36.9999 15.0949 36.885 14.7243 36.6552C-0.464392 27.1379 -0.0394632 16.7214 0.00994704 15.967C-0.0839325 11.8103 1.42802 7.86354 4.27405 4.85098C7.12997 1.82843 10.9741 0.109821 15.1147 0.00490635C23.5984 -0.214915 30.585 6.46467 30.9852 15.1976C31.4201 24.6799 20.614 33.9224 17.2937 36.5253C16.8934 36.84 16.4092 36.9949 15.9201 36.9949V36.9999ZM15.5099 0.9991C15.3864 0.9991 15.2629 0.9991 15.1344 0.9991C11.2607 1.09902 7.65866 2.70772 4.98556 5.53542C2.32235 8.36813 0.904273 12.0701 0.998152 15.972V15.9969V16.0219C0.98827 16.1268 0.365701 26.4834 15.2481 35.8059C15.6977 36.0857 16.2758 36.0607 16.6859 35.7359C19.9124 33.203 30.4071 24.2453 29.997 15.2426C29.6265 7.18409 23.297 0.994104 15.5099 0.994104V0.9991Z" fill="white"/>
<path id="Vector_2" d="M15.8159 31.8292C15.4849 31.8292 15.1489 31.7393 14.8573 31.5544C3.44851 24.4052 3.72027 16.5566 3.7598 15.9271C3.68568 12.7796 4.83694 9.78708 6.99123 7.50393C9.15046 5.21578 12.0706 3.91184 15.2032 3.83191C21.6364 3.65205 26.9283 8.72793 27.2297 15.3476C27.5558 22.5168 19.4179 29.4811 16.9128 31.4445C16.5916 31.6943 16.2013 31.8242 15.811 31.8242L15.8159 31.8292ZM15.5096 4.8311C15.4157 4.8311 15.3267 4.8311 15.2329 4.8311C12.3621 4.90603 9.68903 6.10007 7.70768 8.19337C5.72633 10.2867 4.67883 13.0344 4.748 15.9271V15.9521V15.9771C4.74306 16.052 4.28849 23.7508 15.3762 30.6951C15.6677 30.88 16.0481 30.86 16.3149 30.6502C18.7212 28.7617 26.5528 22.0771 26.2514 15.3875C25.9796 9.41238 21.2856 4.8211 15.5096 4.8211V4.8311Z" fill="white"/>
<path id="Vector_3" d="M15.6972 25.839C15.4551 25.839 15.213 25.7741 15.0005 25.6392C7.86071 21.1678 7.96941 16.2168 7.99905 15.7422C7.91012 11.5856 11.186 8.12838 15.3118 8.02347C19.4128 7.90856 22.8024 11.1509 23 15.3775C23.2075 19.9338 18.0787 24.3302 16.5026 25.5642C16.2703 25.7491 15.9838 25.839 15.7021 25.839H15.6972ZM15.5045 9.01766C15.4501 9.01766 15.3908 9.01766 15.3365 9.01766C11.7444 9.10759 8.89832 12.1251 8.98726 15.7372V15.7622V15.7872C8.98726 15.8321 8.72538 20.5233 15.5242 24.7849C15.6428 24.8598 15.7911 24.8498 15.8948 24.7699C17.3771 23.6058 22.1996 19.4942 22.0118 15.4175C21.8487 11.7954 19.0027 9.01267 15.5045 9.01267V9.01766Z" fill="white"/>
</g>
<defs>
<clipPath id="clip0_174_1380">
<rect width="31" height="37" fill="white"/>
</clipPath>
</defs>
</svg>
