<svg width="28" height="38" viewBox="0 0 28 38" fill="none" xmlns="http://www.w3.org/2000/svg">
<g id="Calque_1" clip-path="url(#clip0_174_1672)">
<path id="Vector" d="M17.543 34.627H17.5069L10.4052 34.5907C8.47768 34.5803 6.66873 33.8124 5.30301 32.4269C3.93728 31.0414 3.18999 29.2096 3.2003 27.2689C3.21061 25.3281 3.97335 23.5016 5.34939 22.1316C6.72542 20.7565 8.53952 19.9989 10.4722 20.0145L17.5739 20.0508C19.5014 20.0612 21.3155 20.8292 22.6761 22.2146C24.0418 23.6001 24.7891 25.4319 24.7788 27.3726C24.7685 29.3134 24.0057 31.14 22.6297 32.5099C21.2588 33.8746 19.455 34.627 17.543 34.627ZM10.4412 20.7928C8.73536 20.7928 7.12226 21.4622 5.89568 22.6817C4.66395 23.9115 3.98366 25.5409 3.97335 27.2689C3.96305 29.002 4.63303 30.6366 5.8493 31.8768C7.07072 33.117 8.68383 33.802 10.4052 33.8124L17.5069 33.8487C19.2489 33.8539 20.8517 33.1845 22.0834 31.9598C23.3152 30.73 23.9954 29.1006 24.0057 27.3726C24.0161 25.6447 23.3461 24.0049 22.1298 22.7647C20.9135 21.5245 19.2901 20.8395 17.5739 20.8291L10.4722 20.7928H10.4412Z" fill="white"/>
<path id="Vector_2" d="M17.4093 38H17.3577L10.5394 37.9689C4.70027 37.9377 -0.0256636 33.1326 0.000104879 27.2481C0.0155659 24.4097 1.12876 21.7425 3.14901 19.7291C5.1538 17.7313 7.79248 16.6312 10.5909 16.6312H10.6425L17.4608 16.6623C20.2799 16.6779 22.9289 17.7987 24.9233 19.8329C26.9178 21.8618 28.0104 24.5446 28.0001 27.3779C27.9846 30.2163 26.8714 32.8835 24.8512 34.8969C22.8464 36.8947 20.2077 37.9948 17.4093 37.9948V38ZM10.5909 17.4199C7.99863 17.4199 5.55063 18.437 3.69015 20.2895C1.81936 22.1524 0.783466 24.6276 0.773158 27.2533C0.74739 32.7019 5.12803 37.1594 10.5446 37.1853L17.3629 37.2164H17.4093C20.0016 37.2164 22.4496 36.1994 24.3101 34.3469C26.1808 32.484 27.2167 30.0087 27.227 27.383C27.2374 24.7573 26.2272 22.2717 24.3771 20.3881C22.5269 18.5044 20.0686 17.4614 17.4608 17.451L10.6425 17.4199H10.5961H10.5909Z" fill="white"/>
<path id="Vector_3" d="M17.1459 31.3787H17.1253L10.5852 31.3475C9.51844 31.3475 8.50831 30.9168 7.75072 30.1437C6.99313 29.3757 6.58083 28.3586 6.58599 27.2793C6.59629 25.0531 8.40008 23.2525 10.6059 23.2525H10.6265L17.1665 23.2836C19.3826 23.294 21.1761 25.1206 21.1658 27.3467C21.1658 28.4209 20.738 29.4379 19.9701 30.2007C19.2125 30.9584 18.2076 31.3735 17.1459 31.3735V31.3787ZM10.6059 24.0361C8.82269 24.0361 7.36935 25.489 7.36419 27.2845C7.36419 28.151 7.69403 28.9709 8.30732 29.5936C8.92061 30.2163 9.72974 30.5588 10.5956 30.564L17.1356 30.5951H17.151C18.0066 30.5951 18.8157 30.2578 19.429 29.6455C20.0474 29.028 20.3876 28.2133 20.3927 27.3415C20.403 25.5409 18.9548 24.0672 17.1665 24.062L10.6265 24.0309H10.611L10.6059 24.0361Z" fill="white"/>
<path id="Vector_4" d="M14.0957 14.2753C10.9262 14.2753 8.35449 11.6807 8.35449 8.49462C8.35449 5.30849 10.9313 2.71393 14.0957 2.71393C17.2601 2.71393 19.8369 5.30849 19.8369 8.49462C19.8369 11.6807 17.2601 14.2753 14.0957 14.2753ZM14.0957 3.48711C11.3539 3.48711 9.12755 5.72881 9.12755 8.48943C9.12755 11.25 11.3539 13.4918 14.0957 13.4918C16.8375 13.4918 19.0639 11.25 19.0639 8.48943C19.0639 5.72881 16.8375 3.48711 14.0957 3.48711Z" fill="white"/>
<path id="Vector_5" d="M14.0958 16.9892C9.44714 16.9892 5.65918 13.1804 5.65918 8.49461C5.65918 3.80882 9.44199 0 14.0958 0C18.7496 0 22.5324 3.80882 22.5324 8.49461C22.5324 13.1804 18.7496 16.9892 14.0958 16.9892ZM14.0958 0.783559C9.86974 0.783559 6.43739 4.24471 6.43739 8.49461C6.43739 12.7445 9.8749 16.2057 14.0958 16.2057C18.3166 16.2057 21.7542 12.7445 21.7542 8.49461C21.7542 4.24471 18.3166 0.778369 14.0958 0.778369V0.783559Z" fill="white"/>
<path id="Vector_6" d="M13.9973 11.1359C12.5491 11.1359 11.374 9.95275 11.374 8.4946C11.374 7.03645 12.5491 5.85333 13.9973 5.85333C15.4454 5.85333 16.6205 7.03645 16.6205 8.4946C16.6205 9.95275 15.4454 11.1359 13.9973 11.1359ZM13.9973 6.63689C12.9768 6.63689 12.1522 7.47234 12.1522 8.4946C12.1522 9.51686 12.982 10.3523 13.9973 10.3523C15.0125 10.3523 15.8423 9.51686 15.8423 8.4946C15.8423 7.47234 15.0125 6.63689 13.9973 6.63689Z" fill="white"/>
</g>
<defs>
<clipPath id="clip0_174_1672">
<rect width="28" height="38" fill="white"/>
</clipPath>
</defs>
</svg>
